<?xml version="1.0" ?>
<!DOCTYPE svg  PUBLIC '-//W3C//DTD SVG 1.1//EN'  'http://www.w3.org/Graphics/SVG/1.1/DTD/svg11.dtd'>
<!-- Uploaded to: SVG Repo, www.svgrepo.com, Generator: SVG Repo Mixer Tools -->
<svg fill="#000000" width="800px" height="800px" viewBox="0 0 32 32" style="fill-rule:evenodd;clip-rule:evenodd;stroke-linejoin:round;stroke-miterlimit:2;" version="1.1" xml:space="preserve" xmlns="http://www.w3.org/2000/svg" xmlns:serif="http://www.serif.com/" xmlns:xlink="http://www.w3.org/1999/xlink">
<g transform="matrix(1,0,0,1,-432,-48)">
<g transform="matrix(1.14827,0,0,1.14827,-65.6442,-8.70986)">
<circle cx="445" cy="61" r="9" style="fill:rgb(144,224,239);"/>
</g>
<path d="M452.626,70.009C452.64,70.025 452.655,70.04 452.67,70.056L460.254,77.639C460.644,78.029 461.277,78.029 461.668,77.639C462.058,77.249 462.058,76.615 461.668,76.225L454.084,68.641C454.068,68.625 454.052,68.61 454.035,68.595C455.679,66.629 456.669,64.096 456.669,61.334C456.669,55.079 451.59,50 445.334,50C439.079,50 434,55.079 434,61.334C434,67.59 439.079,72.669 445.334,72.669C448.111,72.669 450.655,71.668 452.626,70.009ZM445.334,52C450.486,52 454.669,56.183 454.669,61.334C454.669,66.486 450.486,70.669 445.334,70.669C440.183,70.669 436,66.486 436,61.334C436,56.183 440.183,52 445.334,52Z" style="fill:rgb(25,144,167);"/>
</g>
</svg>