<?xml version="1.0" ?>
<!-- Uploaded to: SVG Repo, www.svgrepo.com, Generator: SVG Repo Mixer Tools -->
<svg width="800px" height="800px" viewBox="0 0 32 32" id="Layer_1" version="1.1" xml:space="preserve" xmlns="http://www.w3.org/2000/svg" xmlns:xlink="http://www.w3.org/1999/xlink">
<style type="text/css">
	.st0{fill:#00BBB4;}
	.st1{fill:#1B75BC;}
	.st2{fill:#F15A29;}
</style>
<g>
<path class="st2" d="M14.8300781,16.0913086c0-0.3330078-0.1298828-0.6459961-0.3652344-0.8808594   c0-0.0004883,0-0.0004883,0-0.0004883c-0.2431641-0.2431641-0.5625-0.3642578-0.8813477-0.3642578   c-0.3193359,0-0.6386719,0.1210938-0.8818359,0.3642578c-0.2353516,0.2353516-0.3652344,0.5483398-0.3652344,0.8813477   s0.1298828,0.6459961,0.3652344,0.8808594c0.4863281,0.4858398,1.2768555,0.4873047,1.7631836,0.0004883   C14.7001953,16.7373047,14.8300781,16.4243164,14.8300781,16.0913086z"/>
<path class="st2" d="M17,3L3,17l12,12l14-14V3H17z M18.6694336,21.1777344   c-0.1953125,0.1953125-0.4511719,0.2929688-0.7070313,0.2929688s-0.5117188-0.0976563-0.7070313-0.2929688l-2.2064209-2.2068481   c-0.4606934,0.2336426-0.9603882,0.3652344-1.4654541,0.3655396c-0.831543,0-1.6630859-0.3164063-2.2958984-0.949707   c-0.6132813-0.612793-0.9511719-1.4282227-0.9511719-2.2954102s0.3378906-1.6826172,0.9511719-2.2958984   c1.265625-1.265625,3.324707-1.265625,4.5913086,0c0,0.0004883,0,0.0004883,0,0.0004883   c0.6132813,0.612793,0.9511719,1.4282227,0.9511719,2.2954102c0,0.520752-0.1353149,1.0162964-0.3654785,1.4671631   l2.204834,2.2052002C19.0600586,20.1542969,19.0600586,20.7875977,18.6694336,21.1777344z M23,11.666626   c-0.7363892,0.7363892-1.9302979,0.7363892-2.666687,0c-0.7363892-0.7363281-0.7363892-1.9302368,0-2.666626   S22.2636108,8.2636108,23,9S23.7363892,10.9302979,23,11.666626z"/>
</g>
</svg>